<?xml version="1.0" encoding="UTF-8"?>
<svg id="Layer_1" xmlns="http://www.w3.org/2000/svg" version="1.1" xmlns:xlink="http://www.w3.org/1999/xlink" viewBox="0 0 120.51 120.51">
  <!-- Generator: Adobe Illustrator 29.1.0, SVG Export Plug-In . SVG Version: 2.1.0 Build 142)  -->
  <defs>
    <style>
      .st0, .st1 {
        fill: #fff;
      }

      .st1 {
        font-family: ErasITC-Demi, 'Eras Demi ITC';
        font-size: 42.44px;
        font-weight: 300;
      }

      .st2 {
        fill: url(#linear-gradient);
      }
    </style>
    <linearGradient id="linear-gradient" x1="60.26" y1="161.31" x2="60.26" y2="-185.62" gradientUnits="userSpaceOnUse">
      <stop offset=".12" stop-color="#fb4932"/>
      <stop offset=".19" stop-color="#fa4c31"/>
      <stop offset=".24" stop-color="#f8572e"/>
      <stop offset=".3" stop-color="#f4692a"/>
      <stop offset=".35" stop-color="#f08325"/>
      <stop offset=".4" stop-color="#e9a41e"/>
      <stop offset=".45" stop-color="#e2cc15"/>
      <stop offset=".45" stop-color="#e2ce15"/>
    </linearGradient>
  </defs>
  <rect class="st2" x="0" y="0" width="120.51" height="120.51" rx="60.26" ry="60.26"/>
  <g>
    <text class="st1" transform="translate(45.22 80.05)"><tspan x="0" y="0">AI</tspan></text>
    <g>
      <path class="st0" d="M77.72,38.19v3.32c-.43,0-.84,0-1.25,0-8.57,0-17.13,0-25.7-.02-.79,0-1.07.2-1.26.8-4.1,13.09-8.22,26.18-12.35,39.27-.07.21-.15.41-.29.81-.32-.5-.54-.85-.75-1.19-4.12-6.7-8.25-13.39-12.34-20.1-.33-.54-.7-.73-1.43-.71-1.93.04-3.85.01-5.86.01v-3.36c.94,0,1.87,0,2.81,0,1.9,0,3.79.03,5.69-.01.71-.02,1.04.18,1.35.69,2.89,4.75,5.82,9.49,8.74,14.23.14.22.29.44.56.84.63-1.96,1.21-3.74,1.77-5.53,2.97-9.44,5.94-18.88,8.9-28.32.15-.47.27-.79,1.06-.79,9.9.03,19.8.02,29.7.02.17,0,.34.02.65.04Z"/>
      <rect class="st0" x="67.59" y="38.16" width="21.12" height="3.33"/>
    </g>
  </g>
</svg>